<svg width="24" height="25" viewBox="0 0 24 25" fill="none" xmlns="http://www.w3.org/2000/svg">
<path fill-rule="evenodd" clip-rule="evenodd" d="M6.1875 2.75V5.61364C6.1875 8.77672 8.78984 11.3409 12 11.3409C15.2102 11.3409 17.8125 8.77672 17.8125 5.61364V2.75H19.75V5.61364C19.75 9.83108 16.2802 13.25 12 13.25C7.71979 13.25 4.25 9.83108 4.25 5.61364V2.75H6.1875Z" fill="#141B34"/>
<path d="M4.25 22.25H19.75V19.3864C19.75 15.1689 16.2802 11.75 12 11.75C7.71979 11.75 4.25 15.1689 4.25 19.3864V22.25Z" fill="#141B34"/>
<path fill-rule="evenodd" clip-rule="evenodd" d="M3 2.5C3 1.94772 3.44772 1.5 4 1.5H20C20.5523 1.5 21 1.94772 21 2.5C21 3.05228 20.5523 3.5 20 3.5H4C3.44772 3.5 3 3.05228 3 2.5ZM3 22.5C3 21.9477 3.44772 21.5 4 21.5H20C20.5523 21.5 21 21.9477 21 22.5C21 23.0523 20.5523 23.5 20 23.5H4C3.44772 23.5 3 23.0523 3 22.5Z" fill="#141B34"/>
</svg>
