<?xml version="1.0" encoding="UTF-8"?>
<svg xmlns="http://www.w3.org/2000/svg" width="22" height="21" viewBox="0 0 22 21" fill="none">
  <path fill-rule="evenodd" clip-rule="evenodd" d="M11 2.5C6.01173 2.5 2 6.46404 2 11.3147C2 14.0112 3.23546 16.4285 5.19315 18.0495C5.34295 18.1736 5.45707 18.2679 5.55754 18.3457C5.64178 18.4108 5.70019 18.4515 5.74206 18.4774C5.77435 18.4452 5.82047 18.3942 5.88627 18.3129C5.96921 18.2104 6.06695 18.0805 6.19502 17.9067C6.52269 17.4621 7.14873 17.3673 7.5933 17.695C8.03788 18.0227 8.13265 18.6487 7.80498 19.0933C7.56236 19.4225 7.32287 19.7435 7.06719 19.9768C6.75459 20.2621 6.40744 20.4316 5.97865 20.4852C5.50584 20.5442 5.11005 20.4216 4.76726 20.2245C4.47739 20.0578 4.18365 19.8102 3.9176 19.59C1.52673 17.6102 0 14.6395 0 11.3147C0 5.32438 4.94258 0.5 11 0.5C17.0574 0.5 22 5.32438 22 11.3147C22 14.6395 20.4733 17.6102 18.0824 19.59C17.8163 19.8102 17.5226 20.0578 17.2327 20.2245C16.8899 20.4216 16.4942 20.5442 16.0214 20.4852C15.5926 20.4316 15.2454 20.2621 14.9328 19.9768C14.6771 19.7435 14.4376 19.4225 14.195 19.0933C13.8673 18.6487 13.9621 18.0227 14.4067 17.695C14.8513 17.3673 15.4773 17.4621 15.805 17.9067C15.933 18.0805 16.0308 18.2104 16.1137 18.3129C16.1795 18.3942 16.2256 18.4452 16.2579 18.4774C16.2998 18.4515 16.3582 18.4108 16.4425 18.3457C16.5429 18.2679 16.6571 18.1736 16.8069 18.0495C18.7645 16.4285 20 14.0112 20 11.3147C20 6.46404 15.9883 2.5 11 2.5Z" fill="#60D184"></path>
  <path fill-rule="evenodd" clip-rule="evenodd" d="M17.6333 2.72607C18.0607 3.0758 18.1237 3.70582 17.774 4.13327L13.274 9.63327C12.9243 10.0607 12.2942 10.1237 11.8668 9.77399C11.4393 9.42426 11.3763 8.79424 11.7261 8.36679L16.2261 2.86679C16.5758 2.43935 17.2058 2.37635 17.6333 2.72607Z" fill="#60D184"></path>
  <path fill-rule="evenodd" clip-rule="evenodd" d="M11 8C9.61929 8 8.5 9.11929 8.5 10.5C8.5 11.8807 9.61929 13 11 13C12.3807 13 13.5 11.8807 13.5 10.5C13.5 9.11929 12.3807 8 11 8ZM10.25 10.5C10.25 10.0858 10.5858 9.75 11 9.75C11.4142 9.75 11.75 10.0858 11.75 10.5C11.75 10.9142 11.4142 11.25 11 11.25C10.5858 11.25 10.25 10.9142 10.25 10.5Z" fill="#60D184"></path>
</svg>
