<svg width="24" height="25" viewBox="0 0 24 25" fill="none" xmlns="http://www.w3.org/2000/svg">
<path fill-rule="evenodd" clip-rule="evenodd" d="M14.0567 1.5H9.94328C8.35179 1.49999 7.07838 1.49997 6.06076 1.60724C5.01328 1.71765 4.12227 1.95065 3.34533 2.49466C2.81978 2.86266 2.36266 3.31978 1.99466 3.84533C1.45065 4.62227 1.21765 5.51328 1.10724 6.56076C0.999974 7.57838 0.999986 8.85179 1 10.4433V10.5567C0.999986 12.1482 0.999974 13.4216 1.10724 14.4392C1.21765 15.4867 1.45065 16.3777 1.99466 17.1547C2.36266 17.6802 2.81978 18.1373 3.34533 18.5053C4.12227 19.0494 5.01328 19.2824 6.06076 19.3928C7.03205 19.4951 8.23639 19.4998 9.72791 19.5C9.76674 19.8334 9.75416 20.1705 9.69509 20.4899C9.62759 20.8549 9.59384 21.0374 9.31586 21.2687C9.03788 21.5 8.76464 21.5 8.21814 21.5H7C6.44772 21.5 6 21.9477 6 22.5C6 23.0523 6.44772 23.5 7 23.5H17C17.5523 23.5 18 23.0523 18 22.5C18 21.9477 17.5523 21.5 17 21.5H15.7818C15.2353 21.5 14.9621 21.5 14.6841 21.2687C14.4061 21.0374 14.3724 20.8549 14.3049 20.4899C14.2458 20.1705 14.2332 19.8334 14.272 19.5C15.7636 19.4998 16.9679 19.4951 17.9392 19.3928C18.9867 19.2824 19.8777 19.0494 20.6547 18.5053C21.1802 18.1373 21.6373 17.6802 22.0053 17.1547C22.5494 16.3777 22.7824 15.4867 22.8928 14.4392C23 13.4216 23 12.1482 23 10.5567V10.4433C23 8.85178 23 7.57837 22.8928 6.56076C22.7824 5.51328 22.5494 4.62227 22.0053 3.84533C21.6373 3.31978 21.1802 2.86266 20.6547 2.49466C19.8777 1.95065 18.9867 1.71765 17.9392 1.60724C16.9216 1.49997 15.6482 1.49999 14.0567 1.5ZM4.49248 4.13297C4.8778 3.86317 5.38772 3.68926 6.27041 3.59622C7.17091 3.5013 8.33876 3.5 10 3.5H14C15.6612 3.5 16.8291 3.5013 17.7296 3.59622C18.6123 3.68926 19.1222 3.86317 19.5075 4.13297C19.842 4.36715 20.1329 4.65804 20.367 4.99248C20.6368 5.3778 20.8107 5.88772 20.9038 6.77041C20.9987 7.67091 21 8.83876 21 10.5C21 12.1612 20.9987 13.3291 20.9038 14.2296C20.8107 15.1123 20.6368 15.6222 20.367 16.0075C20.1329 16.342 19.842 16.6329 19.5075 16.867C19.1222 17.1368 18.6123 17.3107 17.7296 17.4038C16.8291 17.4987 15.6612 17.5 14 17.5H10C8.33876 17.5 7.17091 17.4987 6.27041 17.4038C5.38772 17.3107 4.8778 17.1368 4.49248 16.867C4.15804 16.6329 3.86715 16.342 3.63297 16.0075C3.36317 15.6222 3.18926 15.1123 3.09622 14.2296C3.0013 13.3291 3 12.1612 3 10.5C3 8.83876 3.0013 7.67091 3.09622 6.77041C3.18926 5.88772 3.36317 5.3778 3.63297 4.99248C3.86715 4.65804 4.15804 4.36715 4.49248 4.13297Z" fill="#141B34"/>
<path fill-rule="evenodd" clip-rule="evenodd" d="M12 5C12.5523 5 13 5.44772 13 6V6.27827C13.8024 6.53113 14.4829 7.08617 14.8085 7.86363C15.0219 8.37302 14.782 8.95896 14.2726 9.17234C13.7632 9.38573 13.1772 9.14577 12.9639 8.63637C12.8699 8.41204 12.5363 8.125 12 8.125C11.2818 8.125 11 8.5853 11 8.8125C11 9.0397 11.2818 9.5 12 9.5C13.4909 9.5 15 10.5507 15 12.1875C15 13.4528 14.0981 14.3679 13 14.7181V15C13 15.5523 12.5523 16 12 16C11.4477 16 11 15.5523 11 15V14.7217C10.1976 14.4689 9.51714 13.9138 9.19146 13.1364C8.97807 12.627 9.21804 12.041 9.72743 11.8277C10.2368 11.6143 10.8228 11.8542 11.0361 12.3636C11.1301 12.588 11.4637 12.875 12 12.875C12.7182 12.875 13 12.4147 13 12.1875C13 11.9603 12.7182 11.5 12 11.5C10.5091 11.5 9 10.4493 9 8.8125C9 7.54719 9.90187 6.6321 11 6.28192V6C11 5.44772 11.4477 5 12 5Z" fill="#141B34"/>
</svg>
