<svg width="24" height="25" viewBox="0 0 24 25" fill="none" xmlns="http://www.w3.org/2000/svg">
<path fill-rule="evenodd" clip-rule="evenodd" d="M11 2.5C11 1.94772 11.4477 1.5 12 1.5C18.0751 1.5 23 6.42487 23 12.5C23 18.5751 18.0751 23.5 12 23.5C5.92487 23.5 1 18.5751 1 12.5C1 10.5123 1.52813 8.64487 2.4524 7.03367C2.72721 6.55462 3.33835 6.38905 3.8174 6.66386C4.29646 6.93867 4.46203 7.54981 4.18722 8.02886C3.43208 9.34523 3 10.8706 3 12.5C3 17.4706 7.02944 21.5 12 21.5C16.9706 21.5 21 17.4706 21 12.5C21 7.52944 16.9706 3.5 12 3.5C11.4477 3.5 11 3.05228 11 2.5Z" fill="#141B34"/>
<path fill-rule="evenodd" clip-rule="evenodd" d="M11 5.75C11 5.19772 11.4477 4.75 12 4.75C16.2802 4.75 19.75 8.21979 19.75 12.5C19.75 16.7802 16.2802 20.25 12 20.25C7.71979 20.25 4.25 16.7802 4.25 12.5C4.25 11.9477 4.69772 11.5 5.25 11.5C5.80228 11.5 6.25 11.9477 6.25 12.5C6.25 15.6756 8.82436 18.25 12 18.25C15.1756 18.25 17.75 15.6756 17.75 12.5C17.75 9.32436 15.1756 6.75 12 6.75C11.4477 6.75 11 6.30228 11 5.75Z" fill="#141B34"/>
<path fill-rule="evenodd" clip-rule="evenodd" d="M11 9.5C11 8.94772 11.4477 8.5 12 8.5C14.2091 8.5 16 10.2909 16 12.5C16 14.7091 14.2091 16.5 12 16.5C11.4477 16.5 11 16.0523 11 15.5C11 14.9477 11.4477 14.5 12 14.5C13.1046 14.5 14 13.6046 14 12.5C14 11.3954 13.1046 10.5 12 10.5C11.4477 10.5 11 10.0523 11 9.5Z" fill="#141B34"/>
</svg>
