<svg width="24" height="25" viewBox="0 0 24 25" fill="none" xmlns="http://www.w3.org/2000/svg">
<path d="M8.5 5.5C8.5 3.567 10.067 2 12 2C13.933 2 15.5 3.567 15.5 5.5C15.5 7.433 13.933 9 12 9C10.067 9 8.5 7.433 8.5 5.5Z" fill="#141B34"/>
<circle cx="12" cy="21" r="2" fill="#141B34"/>
<circle cx="20" cy="21" r="2" fill="#141B34"/>
<circle cx="4" cy="21" r="2" fill="#141B34"/>
<path fill-rule="evenodd" clip-rule="evenodd" d="M12 11C12.5523 11 13 11.4477 13 12V13H17.5C19.2132 13 21 14.1464 21 16C21 16.5523 20.5523 17 20 17C19.4477 17 19 16.5523 19 16C19 15.6444 18.5482 15 17.5 15H13V16C13 16.5523 12.5523 17 12 17C11.4477 17 11 16.5523 11 16V15H6.5C5.45181 15 5 15.6444 5 16C5 16.5523 4.55228 17 4 17C3.44772 17 3 16.5523 3 16C3 14.1464 4.78677 13 6.5 13H11V12C11 11.4477 11.4477 11 12 11Z" fill="#141B34"/>
</svg>
