<svg width="24" height="25" viewBox="0 0 24 25" fill="none" xmlns="http://www.w3.org/2000/svg">
<path d="M6.44916 2.75L6.5 2.75L6.55085 2.75H6.55089C7.33242 2.74997 7.99342 2.74994 8.52016 2.82076C9.07988 2.89601 9.59891 3.06338 10.0178 3.48224C10.4366 3.90109 10.604 4.42013 10.6792 4.97984C10.7501 5.50659 10.75 6.16759 10.75 6.94912V6.94916V7.05084V7.05088C10.75 7.83241 10.7501 8.49342 10.6792 9.02016C10.604 9.57988 10.4366 10.0989 10.0178 10.5178C9.59891 10.9366 9.07988 11.104 8.52016 11.1792C7.99342 11.2501 7.33241 11.25 6.55088 11.25H6.55084H6.44916H6.44912C5.66759 11.25 5.00659 11.2501 4.47984 11.1792C3.92013 11.104 3.40109 10.9366 2.98224 10.5178C2.56338 10.0989 2.39601 9.57988 2.32076 9.02016C2.24994 8.49342 2.24997 7.83242 2.25 7.05089V7.05085L2.25 7L2.25 6.94916V6.94912C2.24997 6.16759 2.24994 5.50659 2.32076 4.97984C2.39601 4.42013 2.56338 3.90109 2.98224 3.48224C3.40109 3.06338 3.92013 2.89601 4.47984 2.82076C5.00659 2.74994 5.66759 2.74997 6.44912 2.75H6.44916Z" fill="#141B34"/>
<path d="M6.44916 13.75L6.5 13.75L6.55085 13.75H6.55089C7.33242 13.75 7.99342 13.7499 8.52016 13.8208C9.07988 13.896 9.59891 14.0634 10.0178 14.4822C10.4366 14.9011 10.604 15.4201 10.6792 15.9798C10.7501 16.5066 10.75 17.1676 10.75 17.9491V17.9492V18.0508V18.0509C10.75 18.8324 10.7501 19.4934 10.6792 20.0202C10.604 20.5799 10.4366 21.0989 10.0178 21.5178C9.59891 21.9366 9.07988 22.104 8.52016 22.1792C7.99342 22.2501 7.33241 22.25 6.55088 22.25H6.55084H6.44916H6.44912C5.66759 22.25 5.00659 22.2501 4.47984 22.1792C3.92013 22.104 3.40109 21.9366 2.98224 21.5178C2.56338 21.0989 2.39601 20.5799 2.32076 20.0202C2.24994 19.4934 2.24997 18.8324 2.25 18.0509V18.0508L2.25 18L2.25 17.9492V17.9491C2.24997 17.1676 2.24994 16.5066 2.32076 15.9798C2.39601 15.4201 2.56338 14.9011 2.98224 14.4822C3.40109 14.0634 3.92013 13.896 4.47984 13.8208C5.00659 13.7499 5.66759 13.75 6.44912 13.75H6.44916Z" fill="#141B34"/>
<path fill-rule="evenodd" clip-rule="evenodd" d="M13.75 4.5C13.75 3.94772 14.1977 3.5 14.75 3.5H20.75C21.3023 3.5 21.75 3.94772 21.75 4.5C21.75 5.05228 21.3023 5.5 20.75 5.5H14.75C14.1977 5.5 13.75 5.05228 13.75 4.5ZM13.75 9.5C13.75 8.94772 14.1977 8.5 14.75 8.5H20.75C21.3023 8.5 21.75 8.94772 21.75 9.5C21.75 10.0523 21.3023 10.5 20.75 10.5H14.75C14.1977 10.5 13.75 10.0523 13.75 9.5ZM13.75 15.5C13.75 14.9477 14.1977 14.5 14.75 14.5H20.75C21.3023 14.5 21.75 14.9477 21.75 15.5C21.75 16.0523 21.3023 16.5 20.75 16.5H14.75C14.1977 16.5 13.75 16.0523 13.75 15.5ZM13.75 20.5C13.75 19.9477 14.1977 19.5 14.75 19.5H20.75C21.3023 19.5 21.75 19.9477 21.75 20.5C21.75 21.0523 21.3023 21.5 20.75 21.5H14.75C14.1977 21.5 13.75 21.0523 13.75 20.5Z" fill="#141B34"/>
</svg>
