<?xml version="1.0" encoding="UTF-8"?>
<svg xmlns="http://www.w3.org/2000/svg" width="36" height="36" viewBox="0 0 36 36" fill="none">
  <path fill-rule="evenodd" clip-rule="evenodd" d="M28.8332 7.16659L13.8332 7.16659C12.9127 7.16659 12.1665 6.42039 12.1665 5.49992C12.1665 4.57944 12.9127 3.83325 13.8332 3.83325L28.8332 3.83325C29.7536 3.83325 30.4998 4.57945 30.4998 5.49992C30.4998 6.4204 29.7536 7.16659 28.8332 7.16659Z" fill="#60D184"></path>
  <path fill-rule="evenodd" clip-rule="evenodd" d="M10.9882 10.9882C11.639 10.3373 12.6943 10.3373 13.3452 10.9882L24.1785 21.8215C24.8294 22.4724 24.8294 23.5276 24.1785 24.1785C23.5276 24.8294 22.4724 24.8294 21.8215 24.1785L10.9882 13.3452C10.3373 12.6943 10.3373 11.639 10.9882 10.9882Z" fill="#60D184"></path>
  <path fill-rule="evenodd" clip-rule="evenodd" d="M5.50016 10.5C6.42064 10.5 7.16683 11.2462 7.16683 12.1667L7.16683 30.5C7.16683 31.4205 6.42064 32.1667 5.50016 32.1667C4.57969 32.1667 3.83349 31.4205 3.83349 30.5L3.8335 12.1667C3.8335 11.2462 4.57969 10.5 5.50016 10.5Z" fill="#60D184"></path>
  <circle cx="7.90741" cy="7.90741" r="7.40741" fill="#60D184"></circle>
  <path d="M9.66683 31.3334C9.66683 33.6346 7.80135 35.5001 5.50016 35.5001C3.19898 35.5001 1.3335 33.6346 1.3335 31.3334C1.3335 29.0322 3.19898 27.1667 5.50016 27.1667C7.80135 27.1667 9.66683 29.0322 9.66683 31.3334Z" fill="#60D184"></path>
  <circle cx="24.6667" cy="24.6667" r="4.16667" fill="#60D184"></circle>
  <path d="M35.4998 5.49992C35.4998 7.80111 33.6344 9.66659 31.3332 9.66659C29.032 9.66659 27.1665 7.80111 27.1665 5.49992C27.1665 3.19873 29.032 1.33325 31.3332 1.33325C33.6344 1.33325 35.4998 3.19873 35.4998 5.49992Z" fill="#60D184"></path>
</svg>
