<?xml version="1.0" encoding="UTF-8"?>
<svg xmlns="http://www.w3.org/2000/svg" width="22" height="19" viewBox="0 0 22 19" fill="none">
  <path fill-rule="evenodd" clip-rule="evenodd" d="M13.6823 0.286805C11.7265 0.237727 10.2735 0.237735 8.3177 0.28681L8.24285 0.288687C6.73349 0.32652 5.49161 0.357648 4.49064 0.531753C3.42828 0.716538 2.53876 1.07641 1.78536 1.83174C1.0359 2.58311 0.677051 3.4586 0.495257 4.50416C0.324648 5.48538 0.29883 6.69623 0.267582 8.16175L0.265974 8.23714C0.244667 9.23505 0.244679 9.76495 0.265987 10.7629L0.267595 10.8383C0.298844 12.3038 0.324663 13.5146 0.495273 14.4959C0.677067 15.5414 1.03592 16.4169 1.78537 17.1683C2.53878 17.9236 3.42829 18.2835 4.49066 18.4683C5.49162 18.6424 6.7335 18.6735 8.24286 18.7113L8.31772 18.7132C10.2735 18.7623 11.7265 18.7623 13.6823 18.7132L13.7571 18.7113C15.2665 18.6735 16.5084 18.6423 17.5094 18.4682C18.5717 18.2835 19.4612 17.9236 20.2146 17.1683C20.9641 16.4169 21.323 15.5414 21.5047 14.4958C21.6754 13.5146 21.7012 12.3038 21.7324 10.8383L21.734 10.7629C21.7553 9.76495 21.7553 9.23505 21.734 8.23715L21.7324 8.16177C21.7012 6.69627 21.6753 5.48538 21.5047 4.50416C21.3229 3.4586 20.9641 2.58311 20.2146 1.83174C19.7913 1.40728 19.3249 1.1077 18.809 0.893894C18.7305 0.851036 18.6464 0.818733 18.5587 0.79811C18.2289 0.681836 17.8796 0.596161 17.5093 0.531756C16.5084 0.35765 15.2665 0.326519 13.7571 0.288682L13.6823 0.286805ZM19.6798 6.3503C19.6604 5.94479 19.6507 5.74204 19.5039 5.66109C19.3571 5.58014 19.1765 5.68242 18.8155 5.88697L14.5798 8.287C13.2801 9.02337 12.181 9.49998 10.9998 9.49998C9.8186 9.49998 8.71946 9.02337 7.41985 8.287L3.18445 5.88719C2.82343 5.68263 2.64292 5.58035 2.49608 5.6613C2.34924 5.74225 2.33957 5.94501 2.32023 6.35053C2.29416 6.89704 2.28003 7.53061 2.26403 8.2797C2.24333 9.24924 2.24334 9.75076 2.26405 10.7203C2.29736 12.2803 2.32261 13.3393 2.46432 14.1543C2.59776 14.9218 2.82038 15.3777 3.20122 15.7595C3.5781 16.1374 4.04027 16.3638 4.83355 16.5018C5.67174 16.6476 6.76497 16.6776 8.36791 16.7178C10.2902 16.766 11.7098 16.766 13.6321 16.7178C15.235 16.6776 16.3283 16.6476 17.1665 16.5018C17.9597 16.3638 18.4219 16.1374 18.7988 15.7595C19.1796 15.3777 19.4023 14.9218 19.5357 14.1543C19.6774 13.3393 19.7027 12.2803 19.736 10.7203C19.7567 9.75076 19.7567 9.24924 19.736 8.2797C19.72 7.53051 19.7058 6.89687 19.6798 6.3503Z" fill="#60D184"></path>
</svg>
