<svg width="24" height="25" viewBox="0 0 24 25" fill="none" xmlns="http://www.w3.org/2000/svg">
<path d="M9.77028 4.00853C5.04504 5.27023 2.24723 10.0964 3.50682 14.7808C4.76677 19.4666 9.61388 22.2536 14.3404 20.9915C17.8469 20.0552 20.2948 17.1541 20.8065 13.8031C20.888 13.2696 21.3866 12.9031 21.9201 12.9846C22.4537 13.0661 22.8201 13.5647 22.7387 14.0982C22.1131 18.1944 19.1229 21.7375 14.8446 22.8799C9.08626 24.4174 3.16187 21.025 1.61935 15.2883C0.0764713 9.55039 3.50646 3.65805 9.26606 2.12017C14.6734 0.676346 20.2251 3.57901 22.1609 8.6882C22.2709 8.97867 22.2363 9.30416 22.0677 9.56502C21.899 9.82587 21.6164 9.99102 21.3064 10.0099L18.8533 10.1592C18.3146 10.192 17.8513 9.78189 17.8185 9.24316C17.8062 9.04137 17.8185 8.82125 17.9515 8.6882L18.9587 7.68099C19.132 7.50772 19.1553 7.2333 19.0027 7.04158C16.8809 4.37593 13.2915 3.06832 9.77028 4.00853Z" fill="#141B34"/>
<path fill-rule="evenodd" clip-rule="evenodd" d="M12 7.5C12.5523 7.5 13 7.94772 13 8.5V12.0858L14.7071 13.7929C15.0976 14.1834 15.0976 14.8166 14.7071 15.2071C14.3166 15.5976 13.6834 15.5976 13.2929 15.2071L11.2929 13.2071C11.1054 13.0196 11 12.7652 11 12.5V8.5C11 7.94772 11.4477 7.5 12 7.5Z" fill="#141B34"/>
</svg>
