<svg width="24" height="25" viewBox="0 0 24 25" fill="none" xmlns="http://www.w3.org/2000/svg">
<path fill-rule="evenodd" clip-rule="evenodd" d="M12 8.5C9.79086 8.5 8 10.2909 8 12.5C8 14.7091 9.79086 16.5 12 16.5C14.2091 16.5 16 14.7091 16 12.5C16 11.9477 16.4477 11.5 17 11.5C17.5523 11.5 18 11.9477 18 12.5C18 15.8137 15.3137 18.5 12 18.5C8.68629 18.5 6 15.8137 6 12.5C6 9.18629 8.68629 6.5 12 6.5C12.5523 6.5 13 6.94772 13 7.5C13 8.05228 12.5523 8.5 12 8.5Z" fill="#141B34"/>
<path fill-rule="evenodd" clip-rule="evenodd" d="M12 3.5C7.02944 3.5 3 7.52944 3 12.5C3 17.4706 7.02944 21.5 12 21.5C16.9706 21.5 21 17.4706 21 12.5C21 11.8823 20.9379 11.28 20.82 10.6989C20.7101 10.1577 21.0598 9.62985 21.601 9.51999C22.1423 9.41012 22.6701 9.75982 22.78 10.3011C22.9244 11.0124 23 11.7479 23 12.5C23 18.5751 18.0751 23.5 12 23.5C5.92487 23.5 1 18.5751 1 12.5C1 6.42487 5.92487 1.5 12 1.5C12.7521 1.5 13.4876 1.57563 14.1989 1.72002C14.7402 1.82989 15.0899 2.35772 14.98 2.89897C14.8701 3.44022 14.3423 3.78992 13.8011 3.68005C13.22 3.56209 12.6177 3.5 12 3.5Z" fill="#141B34"/>
<path d="M20.1421 2.57773C19.9845 1.97361 19.4963 1.60271 18.9726 1.51905C18.4678 1.43842 17.9564 1.61764 17.5909 1.98308L16.4415 3.13246C15.1721 4.40187 15.0659 5.96618 15.4909 7.59504L11.2929 11.793C10.9024 12.1835 10.9024 12.8167 11.2929 13.2072C11.6834 13.5978 12.3166 13.5978 12.7071 13.2072L16.9051 9.00926C18.5339 9.43425 20.0983 9.32798 21.3677 8.05858L22.517 6.90919C22.8825 6.54375 23.0617 6.03232 22.9811 5.52757C22.8974 5.00383 22.5265 4.51562 21.9224 4.358L20.5105 3.98962L20.1421 2.57773Z" fill="#141B34"/>
</svg>
