<?xml version="1.0" encoding="UTF-8"?>
<svg xmlns="http://www.w3.org/2000/svg" width="24" height="25" viewBox="0 0 24 25" fill="none">
  <path fill-rule="evenodd" clip-rule="evenodd" d="M12 7C12.5523 7 13 7.44772 13 8V8.27827C13.8024 8.53113 14.4829 9.08617 14.8085 9.86363C15.0219 10.373 14.782 10.959 14.2726 11.1723C13.7632 11.3857 13.1772 11.1458 12.9639 10.6364C12.8699 10.412 12.5363 10.125 12 10.125C11.2818 10.125 11 10.5853 11 10.8125C11 11.0397 11.2818 11.5 12 11.5C13.4909 11.5 15 12.5507 15 14.1875C15 15.4528 14.0981 16.3679 13 16.7181V17C13 17.5523 12.5523 18 12 18C11.4477 18 11 17.5523 11 17V16.7217C10.1976 16.4689 9.51714 15.9138 9.19146 15.1364C8.97807 14.627 9.21804 14.041 9.72743 13.8277C10.2368 13.6143 10.8228 13.8542 11.0361 14.3636C11.1301 14.588 11.4637 14.875 12 14.875C12.7182 14.875 13 14.4147 13 14.1875C13 13.9603 12.7182 13.5 12 13.5C10.5091 13.5 9 12.4493 9 10.8125C9 9.54719 9.90187 8.6321 11 8.28192V8C11 7.44772 11.4477 7 12 7Z" fill="#60D184"></path>
  <path fill-rule="evenodd" clip-rule="evenodd" d="M12 3.70455C7.1424 3.70455 3.20455 7.6424 3.20455 12.5C3.20455 17.3576 7.1424 21.2955 12 21.2955C16.8576 21.2955 20.7955 17.3576 20.7955 12.5C20.7955 11.8963 20.7348 11.3078 20.6195 10.7399C20.5121 10.2109 20.8539 9.69509 21.3828 9.58771C21.9118 9.48034 22.4276 9.8221 22.535 10.351C22.6761 11.0462 22.75 11.765 22.75 12.5C22.75 18.4371 17.9371 23.25 12 23.25C6.06294 23.25 1.25 18.4371 1.25 12.5C1.25 6.56294 6.06294 1.75 12 1.75C12.735 1.75 13.4538 1.82391 14.149 1.96502C14.6779 2.07239 15.0197 2.58823 14.9123 3.11717C14.8049 3.64612 14.2891 3.98787 13.7601 3.8805C13.1922 3.76522 12.6037 3.70455 12 3.70455Z" fill="#60D184"></path>
  <path d="M21.0522 2.04097C21.4401 1.65301 22.0691 1.65301 22.4571 2.04097C22.845 2.42892 22.845 3.05793 22.4571 3.44588L20.6567 5.24631L20.7705 5.36011C20.9746 5.56404 21.1905 5.77981 21.3404 5.97055C21.4497 6.10961 21.8507 6.62261 21.6337 7.26119C21.4166 7.90029 20.7931 8.0392 20.6244 8.07637C20.3921 8.12754 20.0931 8.15539 19.8102 8.18174L19.7616 8.18626C19.3161 8.22791 18.7984 8.2647 18.3366 8.24411C18.1061 8.23383 17.8533 8.20801 17.6124 8.14644C17.3891 8.08936 17.062 7.97368 16.7932 7.70492C16.5244 7.43617 16.4088 7.10902 16.3517 6.88571C16.2901 6.64482 16.2643 6.39205 16.254 6.16147C16.2334 5.69974 16.2702 5.182 16.3119 4.73648L16.3164 4.68791C16.3427 4.40502 16.3706 4.106 16.4218 3.87368C16.4589 3.70496 16.5978 3.08145 17.2369 2.86434C17.8755 2.6474 18.3885 3.04834 18.5276 3.15767C18.7183 3.30761 18.9341 3.52352 19.138 3.72759L19.2518 3.84139L21.0522 2.04097Z" fill="#60D184"></path>
</svg>
