<svg width="24" height="25" viewBox="0 0 24 25" fill="none" xmlns="http://www.w3.org/2000/svg">
<path fill-rule="evenodd" clip-rule="evenodd" d="M13.0059 21.75C13.0059 22.3023 12.5581 22.75 12.0059 22.75C11.4536 22.75 11.0059 22.3023 11.0059 21.75L11.0059 17.25L10.4116 17.25C10.236 17.2501 10.0203 17.2503 9.84387 17.2282L9.84053 17.2278C9.71408 17.212 9.13804 17.1402 8.86368 16.5746C8.58872 16.0077 8.89065 15.5076 8.95597 15.3994L8.95841 15.3954C9.05062 15.2424 9.18477 15.0715 9.29511 14.9309L9.31885 14.9007C9.61348 14.5248 9.99545 14.0406 10.3759 13.6496C10.5657 13.4545 10.783 13.2533 11.0139 13.0944C11.2191 12.9532 11.5693 12.75 12 12.75C12.4307 12.75 12.7809 12.9532 12.9861 13.0944C13.217 13.2533 13.4343 13.4545 13.6241 13.6496C14.0046 14.0406 14.3865 14.5248 14.6812 14.9007L14.7049 14.9309C14.8152 15.0715 14.9494 15.2423 15.0416 15.3954L15.044 15.3994C15.1093 15.5076 15.4113 16.0078 15.1363 16.5746C14.862 17.1402 14.2859 17.212 14.1595 17.2278L14.1561 17.2282C13.9797 17.2503 13.764 17.2501 13.5884 17.25L13.0059 17.25L13.0059 21.75Z" fill="#141B34"/>
<path d="M1.25 13C1.25 10.3583 3.03106 8.1332 5.45825 7.45919C5.65424 7.40476 5.75224 7.37755 5.80872 7.3197C5.8652 7.26184 5.88991 7.16384 5.93931 6.96783C6.62272 4.25653 9.07671 2.25 12 2.25C15.2149 2.25 17.8628 4.67731 18.2112 7.79924C18.2385 8.04459 18.2522 8.1673 18.3147 8.23828C18.3772 8.30927 18.4989 8.3388 18.7423 8.39786C21.0422 8.95589 22.75 11.0285 22.75 13.5C22.75 16.3995 20.3995 18.75 17.5 18.75H16.4006C15.942 18.75 15.7126 18.75 15.6826 18.7119C15.6679 18.6933 15.6641 18.6839 15.6617 18.6603C15.6567 18.6121 15.8519 18.4223 16.2425 18.0427C17.2326 17.0804 17.255 15.4976 16.2927 14.5075C15.6442 13.6982 15.0315 12.8422 14.2379 12.1663C13.6086 11.6303 12.8426 11.25 12 11.25C11.1574 11.25 10.3914 11.6303 9.76209 12.1663C8.96846 12.8422 8.35575 13.6982 7.7073 14.5075C6.74496 15.4976 6.76745 17.0804 7.75753 18.0427C8.14807 18.4223 8.34334 18.6121 8.33832 18.6603C8.33587 18.6839 8.33206 18.6933 8.31739 18.7119C8.28737 18.75 8.05801 18.75 7.59942 18.75H7C3.82436 18.75 1.25 16.1756 1.25 13Z" fill="#141B34"/>
</svg>
