<svg width="24" height="25" viewBox="0 0 24 25" fill="none" xmlns="http://www.w3.org/2000/svg">
<path fill-rule="evenodd" clip-rule="evenodd" d="M9 3.5C9 4.05228 8.55228 4.5 8 4.5H7C6.44772 4.5 6 4.05228 6 3.5C6 2.94772 6.44772 2.5 7 2.5H8C8.55228 2.5 9 2.94772 9 3.5Z" fill="#141B34"/>
<path fill-rule="evenodd" clip-rule="evenodd" d="M12 7.5C12 8.05228 11.5523 8.5 11 8.5H7C6.44772 8.5 6 8.05228 6 7.5C6 6.94772 6.44772 6.5 7 6.5H11C11.5523 6.5 12 6.94772 12 7.5Z" fill="#141B34"/>
<path d="M3 2.5C3.55229 2.5 4 2.94772 4 3.5V14.5C4 16.1782 4.00213 17.3362 4.11923 18.2072C4.18163 18.6714 4.26041 19.2042 4.6078 19.5495C5.11558 20.0542 5.65243 20.2947 6.2928 20.3808C7.16378 20.4979 8.32182 20.5 10 20.5H21C21.5523 20.5 22 20.9477 22 21.5C22 22.0523 21.5523 22.5 21 22.5H9.928C8.33933 22.5 7.04616 22.5001 6.0263 22.3629C4.96232 22.2199 4.04735 21.9113 3.31802 21.182C2.58869 20.4526 2.28011 19.5377 2.13706 18.4737C1.99995 17.4539 1.99997 16.1607 2 14.572V3.5C2 2.94772 2.44772 2.5 3 2.5Z" fill="#141B34"/>
<path d="M6.18726 20.3651C6.3807 19.9565 6.56361 19.543 6.7465 19.1296C7.09983 18.3308 7.45308 17.5322 7.88206 16.7696C8.28242 16.0577 8.69797 15.4707 9.13128 15.0707C9.55588 14.6788 9.93769 14.5189 10.3058 14.5189C10.8784 14.5189 11.3159 14.9783 11.6952 15.3766C11.7412 15.425 11.7865 15.4725 11.8309 15.5182C12.3831 16.0847 13.2476 16.9717 14.6132 16.9717C15.7622 16.9717 16.5941 16.4651 17.2097 15.7911C17.7401 15.2105 18.1403 14.4674 18.4738 13.848C18.4988 13.8018 18.5233 13.7562 18.5475 13.7114C19.3296 12.2648 19.8601 11.5 20.9995 11.5C21.5518 11.5 21.9995 11.0523 21.9995 10.5C21.9995 9.94772 21.5518 9.5 20.9995 9.5C18.5501 9.5 17.5056 11.4328 16.8086 12.7224C16.7608 12.8109 16.7134 12.9003 16.6658 12.99C16.396 13.4986 16.1205 14.0181 15.733 14.4424C15.4115 14.7943 15.0859 14.9717 14.6132 14.9717C14.1538 14.9717 13.8415 14.7124 13.1883 14.0455C13.1695 14.0263 13.1503 14.0067 13.1308 13.9867C12.5705 13.4129 11.6975 12.5189 10.3058 12.5189C9.28219 12.5189 8.43871 12.9882 7.77477 13.6011C7.11953 14.2058 6.58328 14.999 6.13887 15.7891C5.67762 16.6092 5.29664 17.467 4.91553 18.3252C4.7625 18.6697 4.60945 19.0144 4.45117 19.3566C4.49622 19.4256 4.54789 19.4903 4.60747 19.5495C5.0872 20.0263 5.59287 20.2673 6.18726 20.3651Z" fill="#141B34"/>
</svg>
