<svg width="24" height="25" viewBox="0 0 24 25" fill="none" xmlns="http://www.w3.org/2000/svg">
<path fill-rule="evenodd" clip-rule="evenodd" d="M1.25 12.5C1.25 6.56294 6.06294 1.75 12 1.75C17.9371 1.75 22.75 6.56294 22.75 12.5C22.75 18.4371 17.9371 23.25 12 23.25C6.06294 23.25 1.25 18.4371 1.25 12.5ZM12.4014 8.79796L15.3213 7.82465C16.2075 7.52924 16.6507 7.38153 16.8846 7.61544C17.1185 7.84935 16.9708 8.29246 16.6754 9.1787L15.702 12.0986C15.1986 13.6088 14.9469 14.3639 14.4054 14.9054C13.8639 15.4469 13.1088 15.6986 11.5986 16.202L8.67871 17.1753C7.79247 17.4708 7.34935 17.6185 7.11544 17.3846C6.88153 17.1507 7.02924 16.7075 7.32465 15.8213L8.29796 12.9014C8.80136 11.3912 9.05306 10.6361 9.59457 10.0946C10.1361 9.55306 10.8912 9.30136 12.4014 8.79796ZM12.708 11.792C13.0973 12.1813 13.0973 12.8124 12.708 13.2017L12.7017 13.208C12.3124 13.5973 11.6813 13.5973 11.292 13.208C10.9027 12.8187 10.9027 12.1876 11.292 11.7983L11.2983 11.792C11.6876 11.4027 12.3187 11.4027 12.708 11.792Z" fill="#141B34"/>
</svg>
