<svg width="24" height="25" viewBox="0 0 24 25" fill="none" xmlns="http://www.w3.org/2000/svg">
<path fill-rule="evenodd" clip-rule="evenodd" d="M5.92221 2.33215C6.53387 2.24991 7.29769 2.24995 8.18417 2.25H15.8156C16.7021 2.24995 17.4659 2.24991 18.0775 2.33215C18.7331 2.42028 19.3614 2.61902 19.8711 3.12868C20.3807 3.63835 20.5795 4.2667 20.6676 4.92221C20.7498 5.53387 20.7498 6.29769 20.7498 7.18417L20.7498 14.75L20.7498 14.7913C20.7511 14.8426 20.7573 14.8679 20.7796 14.9141L20.7896 14.9338L21.1655 15.6653C21.8895 17.0014 22.3771 18.0653 22.6026 18.9487C22.8346 19.8577 22.8073 20.6495 22.413 21.3656C21.9723 22.1661 21.1848 22.4782 20.3015 22.6165C19.4479 22.7501 18.3095 22.75 16.913 22.75H16.913H16.913H11.9999H7.08676H7.08674H7.08672C5.69027 22.75 4.55188 22.7501 3.69825 22.6165C2.81497 22.4782 2.02749 22.1661 1.58675 21.3656C1.1925 20.6495 1.16515 19.8577 1.39719 18.9487C1.62267 18.0653 2.11021 17.0014 2.83421 15.6653L3.21015 14.9338L3.22019 14.9141C3.2425 14.8679 3.24862 14.8426 3.24991 14.7913L3.25 14.75L3.25 7.18417C3.24995 6.29769 3.24991 5.53387 3.33215 4.92221C3.42028 4.2667 3.61902 3.63835 4.12868 3.12868C4.63835 2.61902 5.2667 2.42028 5.92221 2.33215ZM5.25 7.25V13.65C5.25 13.9328 5.25 14.0743 5.33787 14.1621C5.42574 14.25 5.56716 14.25 5.85 14.25H11.9999H18.1497C18.4326 14.25 18.574 14.25 18.6619 14.1621C18.7497 14.0743 18.7497 13.9328 18.7497 13.65V7.25C18.7497 6.27892 18.7476 5.65121 18.6854 5.1887C18.6271 4.75496 18.533 4.61902 18.4569 4.54289C18.3807 4.46677 18.2448 4.37262 17.811 4.31431C17.3485 4.25212 16.7208 4.25 15.7497 4.25H8.25C7.27892 4.25 6.65121 4.25212 6.1887 4.31431C5.75496 4.37262 5.61902 4.46677 5.54289 4.54289C5.46677 4.61902 5.37262 4.75496 5.31431 5.1887C5.25212 5.65121 5.25 6.27892 5.25 7.25Z" fill="#141B34"/>
<path fill-rule="evenodd" clip-rule="evenodd" d="M13.0724 5.96521C13.5102 6.30193 13.5921 6.92977 13.2554 7.36754L12.51 8.33656L12.9379 8.42738C13.9329 8.63858 14.3763 9.87408 13.6283 10.652L11.8987 12.4509C11.5159 12.8491 10.8829 12.8615 10.4848 12.4787C10.0867 12.0959 10.0742 11.4629 10.457 11.0648L11.3509 10.1351L11.0624 10.0738C10.1306 9.87604 9.65844 8.76355 10.2761 7.96057L11.6701 6.14819C12.0068 5.71042 12.6346 5.6285 13.0724 5.96521Z" fill="#141B34"/>
</svg>
