<svg width="24" height="25" viewBox="0 0 24 25" fill="none" xmlns="http://www.w3.org/2000/svg">
<path fill-rule="evenodd" clip-rule="evenodd" d="M12 4C8.12437 4 5 7.10727 5 10.9189C5 12.2227 5.36394 13.44 5.99704 14.48C6.28421 14.9518 6.13458 15.567 5.66283 15.8542C5.19107 16.1414 4.57584 15.9917 4.28867 15.52C3.47075 14.1763 3 12.6008 3 10.9189C3 5.98352 7.03907 2 12 2C16.9609 2 21 5.98352 21 10.9189C21 12.6008 20.5292 14.1763 19.7113 15.52C19.4242 15.9917 18.8089 16.1414 18.3372 15.8542C17.8654 15.567 17.7158 14.9518 18.003 14.48C18.6361 13.44 19 12.2227 19 10.9189C19 7.10727 15.8756 4 12 4Z" fill="#141B34"/>
<path d="M15.8432 16.25C15.9736 16.25 16.1022 16.25 16.2105 16.255C16.325 16.2602 16.4787 16.2728 16.6389 16.3212C17.1374 16.4717 17.4733 16.8363 17.4987 17.2498C17.5069 17.3826 17.4739 17.4996 17.4441 17.5857C17.1127 19.2676 16.4285 19.7499 15.8431 19.7499H8.1569C7.57151 19.7499 6.8873 19.2676 6.55585 17.5857C6.52614 17.4996 6.49309 17.3826 6.50126 17.2498C6.5267 16.8363 6.8626 16.4717 7.3611 16.3212C7.52127 16.2728 7.67503 16.2602 7.78946 16.255C7.89781 16.25 8.02637 16.25 8.15678 16.25H8.15684H15.8432H15.8432Z" fill="#141B34"/>
<path d="M10.3321 22.9013C10.6774 23.0018 11.0856 23.0018 11.9019 23.0018C12.7182 23.0018 13.1264 23.0018 13.4717 22.9013C14.0057 22.7458 14.4551 22.4204 14.7324 21.9884C14.8356 21.8276 14.906 21.6423 14.9776 21.3791C15.0674 21.0491 15.1123 20.8841 15.0223 20.7663C14.9322 20.6484 14.7551 20.6484 14.4009 20.6484H9.40295C9.04873 20.6484 8.87162 20.6484 8.78156 20.7663C8.69151 20.8841 8.73641 21.0491 8.82623 21.3791C8.89786 21.6423 8.96819 21.8276 9.07142 21.9884C9.34876 22.4204 9.79812 22.7458 10.3321 22.9013Z" fill="#141B34"/>
<path fill-rule="evenodd" clip-rule="evenodd" d="M13.2993 6.74616C13.7157 7.10904 13.759 7.74072 13.3961 8.15706L12.3303 9.37997C12.2794 9.43827 12.3112 9.52973 12.3872 9.54397L13.0514 9.66837C14.2793 9.89838 14.6394 11.4207 13.77 12.2187L11.5713 14.2367C11.1645 14.6102 10.5319 14.5831 10.1584 14.1762C9.78496 13.7693 9.81206 13.1368 10.2189 12.7633L11.511 11.5774C11.5717 11.5217 11.5428 11.4206 11.4618 11.4054L10.9491 11.3094C9.79412 11.093 9.38873 9.71097 10.1161 8.87646L11.8884 6.84297C12.2513 6.42663 12.883 6.38329 13.2993 6.74616Z" fill="#141B34"/>
</svg>
