<?xml version="1.0" encoding="UTF-8"?>
<svg xmlns="http://www.w3.org/2000/svg" width="22" height="23" viewBox="0 0 22 23" fill="none">
  <path d="M15.999 11.4704C15.999 12.0227 15.5513 12.4704 14.999 12.4704C14.8307 12.4704 14.6722 12.4288 14.533 12.3554C14.5101 12.3433 14.4896 12.3273 14.4712 12.309L13.1681 11.0114C13.0604 10.9041 12.8895 10.8947 12.7689 10.9872C10.3507 12.8419 7.86808 13.7442 5.80124 14.1632C4.38064 14.4512 3.15688 14.5112 2.28245 14.4984C1.99884 14.4943 1.75132 14.4825 1.54502 14.4683C1.37973 14.4569 1.25896 14.31 1.27483 14.1451L1.40895 12.7515C1.42482 12.5866 1.57132 12.4661 1.73667 12.4766C1.89838 12.4869 2.09119 12.4954 2.31154 12.4986C3.06969 12.5097 4.1477 12.4577 5.40388 12.2031C7.1415 11.8508 9.22085 11.1114 11.276 9.60664C11.4225 9.49939 11.4363 9.28692 11.3077 9.15883L10.15 8.00604C10.1293 7.98541 10.1114 7.962 10.0986 7.93568C10.0348 7.80399 9.99901 7.65619 9.99901 7.50001C9.99901 6.94773 10.4467 6.50001 10.999 6.50001L13.0532 6.50001C13.4775 6.49993 13.8891 6.49985 14.2286 6.54514C14.6104 6.5961 15.0471 6.7202 15.4106 7.08101C15.7751 7.44284 15.9015 7.87929 15.9533 8.26183C15.9992 8.60024 15.9991 9.01023 15.999 9.43069L15.999 11.4704Z" fill="#60D184"></path>
  <path fill-rule="evenodd" clip-rule="evenodd" d="M14.75 0.75C15.3023 0.75 15.75 1.19772 15.75 1.75V3.13462C15.75 3.6869 15.3023 4.13462 14.75 4.13462C14.1977 4.13462 13.75 3.6869 13.75 3.13462V1.75C13.75 1.19772 14.1977 0.75 14.75 0.75ZM20.0647 2.42695C20.4555 2.81717 20.456 3.45033 20.0658 3.84116L19.0883 4.82024C18.698 5.21107 18.0649 5.21157 17.674 4.82135C17.2832 4.43113 17.2827 3.79797 17.6729 3.40714L18.6505 2.42807C19.0407 2.03723 19.6738 2.03673 20.0647 2.42695ZM18.3676 7.75C18.3676 7.19772 18.8153 6.75 19.3676 6.75H20.75C21.3023 6.75 21.75 7.19772 21.75 7.75C21.75 8.30228 21.3023 8.75 20.75 8.75H19.3676C18.8153 8.75 18.3676 8.30228 18.3676 7.75Z" fill="#60D184"></path>
  <path fill-rule="evenodd" clip-rule="evenodd" d="M11 2.70455C6.1424 2.70455 2.20455 6.6424 2.20455 11.5C2.20455 16.3576 6.1424 20.2955 11 20.2955C15.8576 20.2955 19.7955 16.3576 19.7955 11.5C19.7955 10.9603 20.233 10.5227 20.7727 10.5227C21.3125 10.5227 21.75 10.9603 21.75 11.5C21.75 17.4371 16.9371 22.25 11 22.25C5.06294 22.25 0.25 17.4371 0.25 11.5C0.25 5.56294 5.06294 0.75 11 0.75C11.5397 0.75 11.9773 1.18754 11.9773 1.72727C11.9773 2.26701 11.5397 2.70455 11 2.70455Z" fill="#60D184"></path>
</svg>
