<?xml version="1.0" encoding="UTF-8"?>
<svg xmlns="http://www.w3.org/2000/svg" width="22" height="23" viewBox="0 0 22 23" fill="none">
  <path d="M4.62441 6.08405C4.85417 6.4287 4.76104 6.89435 4.4164 7.12412L3.1976 7.93665C2.74928 8.23553 2.45596 8.43199 2.24145 8.60594C2.03912 8.77003 1.9511 8.88007 1.8961 8.98327C1.87412 9.02449 1.85422 9.07047 1.83673 9.12723L8.2993 13.0048C9.06421 13.4637 9.59079 13.7786 10.0284 13.9844C10.4506 14.1829 10.7339 14.2515 11.0004 14.2515C11.2669 14.2515 11.5502 14.1829 11.9724 13.9844C12.41 13.7786 12.9366 13.4637 13.7015 13.0048L20.164 9.12726C20.1465 9.07049 20.1266 9.0245 20.1046 8.98327C20.0496 8.88007 19.9616 8.77003 19.7593 8.60594C19.5448 8.43198 19.2515 8.23553 18.8031 7.93665L17.5843 7.12412C17.2397 6.89435 17.1466 6.4287 17.3763 6.08405C17.6061 5.73941 18.0718 5.64628 18.4164 5.87604L19.6625 6.70679C20.0761 6.98249 20.4286 7.21749 20.7041 7.4409C20.9978 7.67909 21.2466 7.93675 21.4283 8.2777C21.6289 8.65396 21.6999 9.04114 21.7286 9.46088C21.7509 9.78595 21.7496 10.1716 21.7481 10.6187L21.748 10.6432C21.7438 11.9028 21.732 13.1895 21.6995 14.4929L21.6981 14.5514C21.661 16.039 21.631 17.2391 21.4607 18.2047C21.282 19.2181 20.9387 20.0427 20.2346 20.7468C19.529 21.4524 18.6977 21.7951 17.6757 21.9737C16.7003 22.144 15.4852 22.1744 13.9766 22.2121L13.9184 22.2135C11.9673 22.2623 10.0335 22.2623 8.08238 22.2135L8.02417 22.2121C6.51556 22.1744 5.30049 22.1441 4.32512 21.9737C3.30305 21.7951 2.47177 21.4524 1.7662 20.7469C1.0621 20.0427 0.718785 19.2181 0.540052 18.2047C0.36975 17.2391 0.339815 16.039 0.302708 14.5514L0.30125 14.4929C0.268715 13.1895 0.256996 11.9028 0.252764 10.6432L0.252682 10.6188C0.251172 10.1716 0.24987 9.78595 0.272128 9.46084C0.300862 9.04112 0.371848 8.65395 0.572397 8.27771C0.754138 7.93675 1.00292 7.67909 1.29664 7.4409C1.57213 7.21748 1.92463 6.9825 2.33822 6.70679L3.58435 5.87604C3.92899 5.64628 4.39465 5.73941 4.62441 6.08405Z" fill="#60D184"></path>
  <path d="M14.052 0.75C14.9505 0.749972 15.6997 0.749948 16.2945 0.829913C16.9223 0.914318 17.4891 1.09999 17.9445 1.55546C18.4 2.01093 18.5857 2.57773 18.6701 3.20552C18.7501 3.8003 18.75 4.54951 18.75 5.44798V5.44801L18.75 11.5C18.75 11.9142 18.4142 12.25 18 12.25C17.5858 12.25 17.25 11.9142 17.25 11.5V5.5C17.25 4.53599 17.2484 3.88843 17.1835 3.40539C17.1214 2.94393 17.0142 2.74644 16.8839 2.61612C16.7536 2.4858 16.5561 2.37858 16.0946 2.31654C15.6116 2.2516 14.964 2.25 14 2.25H8C7.03599 2.25 6.38843 2.2516 5.90539 2.31654C5.44393 2.37858 5.24644 2.4858 5.11612 2.61612C4.9858 2.74644 4.87858 2.94393 4.81654 3.40539C4.7516 3.88843 4.75 4.53599 4.75 5.5V11.5C4.75 11.9142 4.41422 12.25 4 12.25C3.58579 12.25 3.25 11.9142 3.25 11.5L3.25 5.448V5.44797C3.24997 4.5495 3.24995 3.8003 3.32991 3.20552C3.41432 2.57773 3.59999 2.01093 4.05546 1.55546C4.51093 1.09999 5.07773 0.914318 5.70552 0.829913C6.3003 0.749948 7.04951 0.749972 7.94797 0.75H7.948H14.052H14.052Z" fill="#60D184"></path>
  <path d="M8.39249 5.12423C9.41437 4.54383 10.3699 4.71949 11.0017 5.10437C11.6334 4.71949 12.5889 4.54383 13.6108 5.12423C14.4414 5.59598 14.8726 6.56342 14.7215 7.60638C14.5703 8.6507 13.8583 9.72745 12.5238 10.642L12.4621 10.6844C12.0495 10.9683 11.6397 11.2502 11.0017 11.2502C10.3636 11.2502 9.95381 10.9683 9.54121 10.6844L9.47953 10.642C8.14502 9.72745 7.43303 8.6507 7.28176 7.60638C7.13069 6.56342 7.56188 5.59598 8.39249 5.12423Z" fill="#60D184"></path>
</svg>
