<?xml version="1.0" encoding="UTF-8"?>
<svg xmlns="http://www.w3.org/2000/svg" width="34" height="34" viewBox="0 0 34 34" fill="none">
  <path fill-rule="evenodd" clip-rule="evenodd" d="M7.8335 24.5001C7.8335 25.4206 8.56119 26.1667 9.45885 26.1667C14.5799 26.1667 19.3578 24.6766 22.8825 21.5734C25.7475 19.0511 27.6864 15.5474 28.3333 11.1667H29.8395C29.8489 11.1667 29.8596 11.1668 29.8714 11.1668C29.9917 11.1672 30.2276 11.1679 30.4357 11.1374C30.6156 11.111 31.4695 10.9718 31.854 10.0633C32.2385 9.15488 31.7546 8.42023 31.6505 8.26745C31.5301 8.09075 31.3684 7.91453 31.286 7.82472C31.2779 7.81589 31.2706 7.80789 31.2641 7.80081L30.1934 6.62658C30.1736 6.60479 30.1537 6.58299 30.1338 6.5612C29.7003 6.08552 29.2704 5.61381 28.8654 5.27498C28.4096 4.89356 27.7801 4.50008 26.9454 4.50008C26.1107 4.50008 25.4812 4.89355 25.0254 5.27497C24.6204 5.61381 24.1905 6.08551 23.757 6.5612C23.7371 6.58298 23.7172 6.60478 23.6974 6.62658L22.6267 7.80081C22.6202 7.80789 22.6129 7.81588 22.6048 7.82472C22.5224 7.91452 22.3607 8.09075 22.2403 8.26746C22.1362 8.42023 21.6523 9.15488 22.0368 10.0633C22.4213 10.9718 23.2751 11.111 23.4551 11.1374C23.6631 11.1679 23.8991 11.1672 24.0193 11.1668C24.0312 11.1668 24.0419 11.1667 24.0513 11.1667H25.0387C24.4335 14.5712 22.8889 17.1744 20.7649 19.0443C17.9608 21.5131 13.9953 22.8334 9.45885 22.8334C8.56119 22.8334 7.8335 23.5796 7.8335 24.5001Z" fill="#60D184"></path>
  <path fill-rule="evenodd" clip-rule="evenodd" d="M2.00017 0.333374C2.92064 0.333374 3.66683 1.07957 3.66683 2.00004V20.3334C3.66683 23.1304 3.67037 25.0604 3.86554 26.5121C4.05426 27.9157 4.39423 28.62 4.88722 29.113C5.38021 29.606 6.08448 29.946 7.48816 30.1347C8.93979 30.3298 10.8699 30.3334 13.6668 30.3334H32.0002C32.9206 30.3334 33.6668 31.0796 33.6668 32C33.6668 32.9205 32.9206 33.6667 32.0002 33.6667H13.5468C10.899 33.6668 8.74376 33.6668 7.044 33.4383C5.27069 33.1999 3.74575 32.6856 2.5302 31.47C1.31464 30.2545 0.800345 28.7295 0.561929 26.9562C0.333404 25.2565 0.333446 23.1012 0.333498 20.4534L0.333499 2.00004C0.333499 1.07957 1.07969 0.333374 2.00017 0.333374Z" fill="#60D184"></path>
</svg>
